<?xml version="1.0" encoding="UTF-8"?>
<!DOCTYPE svg PUBLIC "-//W3C//DTD SVG 1.1//EN" "http://www.w3.org/Graphics/SVG/1.1/DTD/svg11.dtd">
<!-- Creator: CorelDRAW X8 -->
<svg xmlns="http://www.w3.org/2000/svg" xml:space="preserve" width="23.6513mm" height="23.6513mm" version="1.1" style="shape-rendering:geometricPrecision; text-rendering:geometricPrecision; image-rendering:optimizeQuality; fill-rule:evenodd; clip-rule:evenodd"
viewBox="0 0 2365 2365"
 xmlns:xlink="http://www.w3.org/1999/xlink">
 <defs>
  <style type="text/css">
   <![CDATA[
    .fil1 {fill:white;fill-rule:nonzero}
    .fil0 {fill:url(#id0);fill-rule:nonzero}
   ]]>
  </style>
  <linearGradient id="id0" gradientUnits="userSpaceOnUse" x1="1973.69" y1="1899.41" x2="354.962" y2="433.012">
   <stop offset="0" style="stop-opacity:1; stop-color:#FDC05A"/>
   <stop offset="0.329412" style="stop-opacity:1; stop-color:#EE364B"/>
   <stop offset="0.65098" style="stop-opacity:1; stop-color:#AD4899"/>
   <stop offset="1" style="stop-opacity:1; stop-color:#5F5DA7"/>
  </linearGradient>
 </defs>
 <g id="Camada_x0020_1">
  <metadata id="CorelCorpID_0Corel-Layer"/>
  <g id="_1783098800224">
   <g id="_1786684536496">
    <path class="fil0" d="M2365 1182c0,654 -530,1183 -1183,1183 -653,0 -1182,-529 -1182,-1183 0,-652 529,-1182 1182,-1182 653,0 1183,530 1183,1182z"/>
    <path class="fil1" d="M1195 438c-203,0 -230,1 -309,5 -79,4 -133,15 -180,34 -49,19 -91,44 -132,86 -42,41 -67,83 -86,132 -19,48 -31,102 -35,181 -4,79 -4,105 -4,306 0,203 0,228 4,308 4,80 16,134 35,180 19,49 44,91 86,132 42,42 83,67 132,86 47,19 101,32 180,35 79,4 106,4 309,4 201,0 226,0 305,-4 80,-3 134,-16 182,-35 49,-19 90,-44 132,-86 41,-41 67,-83 85,-132 19,-46 31,-100 34,-180 4,-80 5,-105 5,-308 0,-201 -1,-227 -5,-306 -3,-79 -15,-133 -34,-181 -18,-49 -44,-91 -85,-132 -42,-42 -83,-67 -132,-86 -48,-19 -102,-30 -182,-34 -79,-4 -104,-5 -305,-5zm0 135c197,0 221,0 300,3 72,4 111,16 138,27 35,13 59,29 85,55 27,27 43,51 56,86 11,26 22,65 26,137 4,79 4,103 4,301 0,200 0,223 -4,302 -4,72 -15,112 -26,137 -13,35 -29,61 -56,87 -26,25 -50,42 -85,55 -27,11 -66,22 -138,26 -79,3 -103,5 -300,5 -201,0 -223,-2 -303,-5 -71,-4 -112,-15 -137,-26 -35,-13 -60,-30 -87,-55 -25,-26 -41,-52 -55,-87 -10,-25 -21,-65 -25,-137 -4,-79 -5,-102 -5,-302 0,-198 1,-222 5,-301 4,-72 15,-111 25,-137 14,-35 30,-59 55,-86 27,-26 52,-42 87,-55 25,-11 66,-23 137,-27 80,-3 102,-3 303,-3z"/>
    <path class="fil1" d="M1195 1431c-139,0 -250,-111 -250,-249 0,-136 111,-248 250,-248 135,0 247,112 247,248 0,138 -112,249 -247,249zm0 -630c-212,0 -383,171 -383,381 0,211 171,383 383,383 210,0 381,-172 381,-383 0,-210 -171,-381 -381,-381z"/>
    <path class="fil1" d="M1680 785c0,50 -40,90 -89,90 -49,0 -89,-40 -89,-90 0,-49 40,-89 89,-89 49,0 89,40 89,89z"/>
   </g>
  </g>
 </g>
</svg>
